# xmcd CD database file
#
# Track frame offsets:
#	150
#	11929
#	24342
#	42901
#	56880
#	67478
#	78814
#	89771
#	103022
#	116430
#	130203
#	138545
#	150832
#	165396
#	179023
#	188425
#	199390
#	209682
#	219842
#	230380
#	239221
#	251436
#	264227
#	276770
#	289122
#	301043
#
# Disc length: 4179 seconds
#
# Revision: 0
# Processed by: cddbd v1.5.1PL0 Copyright (c) Steve Scherf et al.
# Submitted via: CDex 1.50beta10
#
DISCID=7b10511a
DTITLE=Slim Whitman - Irish Songs The Slim Whitman Way - Reminscing
DYEAR=2004
DGENRE=Country
TTITLE0=My Wild Irish Rose
TTITLE1=Forty Shades of Green
TTITLE2=Eileen
TTITLE3=Galway bay
TTITLE4=Dora My Darling
TTITLE5=I'll Take You Home Again Kathleen
TTITLE6=Too Ra Loo Ra Loo Ral
TTITLE7=Gortnamona
TTITLE8=Stone Outside Dan Murphy's Door
TTITLE9=Londonderry Air
TTITLE10=Peggy O'Neil
TTITLE11=Where The River Shannon Flows
TTITLE12=Reminiscing
TTITLE13=I'm Thinking Tonight Of My Blue Eyes
TTITLE14=Please Help Me I'm Falling
TTITLE15=Careless Hands
TTITLE16=Tell Me Pretty Words
TTITLE17=Be Honest With Me
TTITLE18=La Golondrina (the Swallow)
TTITLE19=Have You ever been Lonely
TTITLE20=Mansion on the Hill
TTITLE21=Bells of Memory
TTITLE22=River of Tears
TTITLE23=Since you've Gone
TTITLE24=When I Grow Too Old to Dream
TTITLE25=More Than Yesterday
EXTD=YEAR: 2004
EXTT0=
EXTT1=
EXTT2=
EXTT3=
EXTT4=
EXTT5=
EXTT6=
EXTT7=
EXTT8=
EXTT9=
EXTT10=
EXTT11=
EXTT12=
EXTT13=
EXTT14=
EXTT15=
EXTT16=
EXTT17=
EXTT18=
EXTT19=
EXTT20=
EXTT21=
EXTT22=
EXTT23=
EXTT24=
EXTT25=
PLAYORDER=
